<svg aria-hidden="true" style="position:absolute;width:0;height:0;overflow:hidden" xmlns="http://www.w3.org/2000/svg"><defs><symbol id="icon-ci_menu-alt-03" viewBox="0 0 32 32"><path fill="#231d4f" style="fill:var(--color1, #231d4f)" d="M18 24H3v-2.5h15V24zm7.5-6.25H3v-2.5h22.5v2.5zM18 11.5H3V9h15v2.5z"/></symbol><symbol id="icon-logo-frame" viewBox="0 0 147 32"><path fill="#231d4f" style="fill:var(--color1, #231d4f)" d="M.394 0v9.973h1.718V1.718h20.652v18.237a10.328 10.328 0 1 1-20.653 0v-1.429h6.476v1.429a3.849 3.849 0 1 0 7.697 0V8.195H8.587v1.778h5.922v9.982a2.068 2.068 0 0 1-2.072 2.072 2.068 2.068 0 0 1-2.072-2.072v-3.208H.392v3.207a12.044 12.044 0 0 0 20.562 8.517 12.045 12.045 0 0 0 3.528-8.517V-.001H.393z"/><path fill="#bb6bd9" style="fill:var(--color2, #bb6bd9)" d="M12.44 25.284a5.337 5.337 0 0 1-5.332-5.329H5.333a7.107 7.107 0 0 0 12.129 5.024 7.107 7.107 0 0 0 2.081-5.024V4.938H3.258v5.034h1.775V6.714h12.733v13.24a5.332 5.332 0 0 1-5.327 5.331z"/><path fill="#231d4f" style="fill:var(--color1, #231d4f)" d="M43.452 24.526c-.617.896-1.364 1.493-2.24 1.792-.856.279-1.802.339-2.837.179a15.922 15.922 0 0 1-3.226-.806l.986-3.494c.637.259 1.264.448 1.882.567.637.1 1.195.11 1.673.03.697-.1 1.125-.557 1.284-1.374s.239-1.901.239-3.255V5.531h3.494v12.634c0 1.434-.09 2.678-.269 3.733s-.508 1.931-.986 2.628zM52.006 26.586c-1.513-.08-2.658-.508-3.435-1.284-.777-.796-1.165-1.892-1.165-3.285 0-1.015.259-1.882.777-2.598.518-.737 1.205-1.314 2.061-1.732s1.802-.677 2.837-.777a10.21 10.21 0 0 1 3.196.209v-.926c0-.637-.259-1.095-.777-1.374s-1.155-.408-1.911-.388a7 7 0 0 0-2.24.448c-.737.259-1.334.637-1.792 1.135l-2.001-2.18c.757-.737 1.653-1.314 2.688-1.732s2.101-.657 3.196-.717c1.115-.06 2.16.07 3.136.388.996.319 1.812.836 2.449 1.553.498.558.777 1.294.836 2.21s.09 1.922.09 3.017v7.885h-3.644v-1.374a5.346 5.346 0 0 1-2.061 1.225 7.309 7.309 0 0 1-2.24.299zm4.181-4.36v-2.569c-2.071-.159-3.514-.03-4.331.388-.796.418-1.195 1.065-1.195 1.941 0 .558.189.966.567 1.225.398.239.886.358 1.463.358a6.037 6.037 0 0 0 1.822-.358 5.373 5.373 0 0 0 1.673-.986zM66.424 26.168a5.395 5.395 0 0 1-2.15-1.732 8.377 8.377 0 0 1-1.254-2.658 12.17 12.17 0 0 1-.388-3.076c0-1.374.249-2.618.747-3.733s1.225-2.001 2.18-2.658c.976-.677 2.17-1.015 3.584-1.015.458 0 .986.05 1.583.149.617.1 1.115.289 1.493.567V5.531h3.584v20.907h-3.584v-1.195c-.339.398-.856.717-1.553.956a7.332 7.332 0 0 1-2.21.329c-.757.02-1.434-.1-2.031-.358zm5.794-3.912v-6.869c-1.035-.418-2.011-.557-2.927-.418-.896.139-1.633.528-2.21 1.165-.558.617-.836 1.474-.836 2.569 0 1.294.279 2.32.836 3.076.557.737 1.284 1.165 2.18 1.284.916.1 1.901-.169 2.957-.806zM103.062 11.504l-5.077 14.933h-4.361l-3.136-10.065-3.106 10.065h-4.361l-5.107-14.933h4.032l3.226 10.991 3.465-10.991h3.733l3.465 10.961 3.196-10.961h4.032zM108.56 26.586c-1.514-.08-2.658-.508-3.435-1.284-.777-.796-1.165-1.892-1.165-3.285 0-1.015.259-1.882.777-2.598.518-.737 1.205-1.314 2.061-1.732s1.802-.677 2.837-.777a10.21 10.21 0 0 1 3.196.209v-.926c0-.637-.259-1.095-.777-1.374s-1.155-.408-1.911-.388a6.994 6.994 0 0 0-2.24.448c-.737.259-1.334.637-1.792 1.135l-2.001-2.18c.757-.737 1.653-1.314 2.688-1.732s2.1-.657 3.196-.717c1.115-.06 2.16.07 3.136.388.995.319 1.812.836 2.449 1.553.498.558.777 1.294.836 2.21s.09 1.922.09 3.017v7.885h-3.644v-1.374a5.36 5.36 0 0 1-2.061 1.225 7.305 7.305 0 0 1-2.24.299zm4.181-4.36v-2.569c-2.07-.159-3.515-.03-4.331.388-.797.418-1.195 1.065-1.195 1.941 0 .558.189.966.567 1.225.398.239.886.358 1.463.358a6.043 6.043 0 0 0 1.822-.358 5.373 5.373 0 0 0 1.673-.986zM123.068 26.437h-3.584V5.53h3.584v20.907zM128.227 9.742c-.618 0-1.135-.209-1.553-.627s-.627-.936-.627-1.553c0-.597.209-1.105.627-1.523s.935-.627 1.553-.627c.597 0 1.105.209 1.523.627s.627.926.627 1.523c0 .617-.209 1.135-.627 1.553s-.926.627-1.523.627zm1.643 16.695h-3.285V11.504h3.285v14.933zM146.807 26.437h-3.584v-8.721c0-.816-.159-1.424-.478-1.822a2.136 2.136 0 0 0-1.135-.836 4.233 4.233 0 0 0-1.284-.209c-.398 0-.866.07-1.404.209a2.927 2.927 0 0 0-1.374.836c-.398.398-.597 1.006-.597 1.822v8.721h-3.584V11.504h3.584v1.075c.338-.458.866-.777 1.583-.956a7.704 7.704 0 0 1 2.061-.299c1.275 0 2.369.269 3.285.806a5.427 5.427 0 0 1 2.15 2.24c.517.956.777 2.071.777 3.345v8.721z"/></symbol><symbol id="icon-Path" viewBox="0 0 38 32"><path  d="M37.672 5.867 19.419 30.638a2.699 2.699 0 0 1-3.814.501L2.57 20.718a2.668 2.668 0 0 1 3.333-4.165l10.869 8.696L33.377 2.713a2.666 2.666 0 1 1 4.292 3.155z"/></symbol></defs></svg>